<?xml version="1.0" encoding="UTF-8"?>
<svg width="32" height="32" viewBox="0 0 32 32" fill="none" xmlns="http://www.w3.org/2000/svg">
  <!-- Book cover -->
  <path d="M24 4H8C6.89543 4 6 4.89543 6 6V26C6 27.1046 6.89543 28 8 28H24C25.1046 28 26 27.1046 26 26V6C26 4.89543 25.1046 4 24 4Z" fill="#4F46E5"/>
  <!-- Book pages -->
  <path d="M24 4H8C6.89543 4 6 4.89543 6 6V26C6 27.1046 6.89543 28 8 28H24C25.1046 28 26 27.1046 26 26V6C26 4.89543 25.1046 4 24 4Z" fill="white" fill-opacity="0.1"/>
  <!-- Book spine -->
  <path d="M8 4V28" stroke="#4338CA" stroke-width="2"/>
  <!-- Book lines -->
  <path d="M10 8H22" stroke="#4338CA" stroke-width="1.5" stroke-linecap="round"/>
  <path d="M10 12H22" stroke="#4338CA" stroke-width="1.5" stroke-linecap="round"/>
  <path d="M10 16H22" stroke="#4338CA" stroke-width="1.5" stroke-linecap="round"/>
  <path d="M10 20H22" stroke="#4338CA" stroke-width="1.5" stroke-linecap="round"/>
  <path d="M10 24H22" stroke="#4338CA" stroke-width="1.5" stroke-linecap="round"/>
</svg> 